<?xml version="1.0" encoding="utf-8"?>
<!-- Generator: Adobe Illustrator 25.4.1, SVG Export Plug-In . SVG Version: 6.00 Build 0)  -->
<svg version="1.1" id="Capa_1" xmlns="http://www.w3.org/2000/svg" xmlns:xlink="http://www.w3.org/1999/xlink" x="0px" y="0px"
	 viewBox="0 0 401.63 392.5" style="enable-background:new 0 0 401.63 392.5;" xml:space="preserve">
<style type="text/css">
	.st0{fill:#E429F2;}
	.st1{fill:#FFFFFF;}
</style>
<g>
	<circle class="st0" cx="79.16" cy="219.5" r="70.81"/>
	<circle class="st0" cx="200.55" cy="199.27" r="128.78"/>
	<circle class="st0" cx="291.11" cy="290.31" r="90.57"/>
	<circle class="st0" cx="305.96" cy="93.86" r="85.18"/>
</g>
<g transform="translate(0.000000,1280.000000) scale(0.100000,-0.100000)">
	<path class="st1" d="M1800.03,10700.67v-652.93l9.75,5.67c44.19,25.84,939.17,542.11,1018.49,587.66
		c76.83,43.97,101.53,59.38,99.72,61.19c-1.59,1.59-168.39,98.36-371,215.07c-202.61,116.94-453.49,261.76-557.52,321.82
		c-104.02,60.06-191.51,110.37-194.22,111.96l-5.21,2.72V10700.67z"/>
</g>
<g>
	<g transform="translate(0.000000,1280.000000) scale(0.100000,-0.100000)">
		<path class="st1" d="M1576.43,10807.15v-652.93l9.75,5.67c44.19,25.84,939.17,542.11,1018.49,587.66
			c76.83,43.97,101.53,59.38,99.72,61.19c-1.59,1.59-168.39,98.36-371,215.08c-202.61,116.94-453.49,261.76-557.52,321.82
			s-191.51,110.37-194.22,111.96l-5.21,2.72V10807.15z"/>
	</g>
	<g transform="translate(0.000000,1280.000000) scale(0.100000,-0.100000)">
		<path class="st1" d="M1693.56,10871.04v-652.93l9.75,5.67c44.19,25.84,939.17,542.11,1018.49,587.66
			c76.83,43.97,101.53,59.38,99.72,61.19c-1.59,1.59-168.39,98.36-371,215.08c-202.61,116.94-453.49,261.76-557.52,321.82
			c-104.02,60.06-191.51,110.37-194.22,111.96l-5.21,2.72V10871.04z"/>
	</g>
	<g transform="translate(0.000000,1280.000000) scale(0.100000,-0.100000)">
		<path class="st1" d="M1682.91,10700.67v-652.93l9.75,5.67c44.19,25.84,939.17,542.11,1018.49,587.66
			c76.83,43.97,101.53,59.38,99.72,61.19c-1.59,1.59-168.39,98.36-371,215.07c-202.61,116.94-453.49,261.76-557.52,321.82
			s-191.51,110.37-194.22,111.96l-5.21,2.72V10700.67z"/>
	</g>
</g>
</svg>
